<mxfile host="app.diagrams.net" modified="2024-04-26T11:55:35.528Z" agent="Mozilla/5.0 (Windows NT 10.0; Win64; x64) AppleWebKit/537.36 (KHTML, like Gecko) Chrome/124.0.0.0 Safari/537.36" etag="rnlUhOJgBpp353GZCGz1" version="24.3.0" type="device">
  <diagram id="R2lEEEUBdFMjLlhIrx00" name="Page-1">
    <mxGraphModel dx="2208" dy="586" grid="1" gridSize="10" guides="1" tooltips="1" connect="1" arrows="1" fold="1" page="1" pageScale="1" pageWidth="850" pageHeight="1100" math="0" shadow="0" extFonts="Permanent Marker^https://fonts.googleapis.com/css?family=Permanent+Marker">
      <root>
        <mxCell id="0" />
        <mxCell id="1" parent="0" />
        <mxCell id="sI1xtVo6L_vtsN0ePvgo-47" style="edgeStyle=none;rounded=0;orthogonalLoop=1;jettySize=auto;html=1;exitX=0.25;exitY=0;exitDx=0;exitDy=0;entryX=0.5;entryY=1;entryDx=0;entryDy=0;" edge="1" parent="1" source="sI1xtVo6L_vtsN0ePvgo-2" target="sI1xtVo6L_vtsN0ePvgo-25">
          <mxGeometry relative="1" as="geometry" />
        </mxCell>
        <mxCell id="sI1xtVo6L_vtsN0ePvgo-48" style="edgeStyle=none;rounded=0;orthogonalLoop=1;jettySize=auto;html=1;exitX=0.75;exitY=0;exitDx=0;exitDy=0;entryX=0.5;entryY=1;entryDx=0;entryDy=0;" edge="1" parent="1" source="sI1xtVo6L_vtsN0ePvgo-2" target="sI1xtVo6L_vtsN0ePvgo-13">
          <mxGeometry relative="1" as="geometry" />
        </mxCell>
        <mxCell id="sI1xtVo6L_vtsN0ePvgo-49" style="edgeStyle=none;rounded=0;orthogonalLoop=1;jettySize=auto;html=1;exitX=1;exitY=0;exitDx=0;exitDy=0;entryX=0.5;entryY=1;entryDx=0;entryDy=0;" edge="1" parent="1" source="sI1xtVo6L_vtsN0ePvgo-2" target="sI1xtVo6L_vtsN0ePvgo-8">
          <mxGeometry relative="1" as="geometry" />
        </mxCell>
        <mxCell id="sI1xtVo6L_vtsN0ePvgo-50" style="edgeStyle=none;rounded=0;orthogonalLoop=1;jettySize=auto;html=1;exitX=0;exitY=0;exitDx=0;exitDy=0;entryX=1;entryY=0.5;entryDx=0;entryDy=0;" edge="1" parent="1" source="sI1xtVo6L_vtsN0ePvgo-2" target="sI1xtVo6L_vtsN0ePvgo-14">
          <mxGeometry relative="1" as="geometry" />
        </mxCell>
        <mxCell id="sI1xtVo6L_vtsN0ePvgo-51" style="edgeStyle=none;rounded=0;orthogonalLoop=1;jettySize=auto;html=1;exitX=0;exitY=0.25;exitDx=0;exitDy=0;entryX=1;entryY=0.5;entryDx=0;entryDy=0;" edge="1" parent="1" source="sI1xtVo6L_vtsN0ePvgo-2" target="sI1xtVo6L_vtsN0ePvgo-12">
          <mxGeometry relative="1" as="geometry" />
        </mxCell>
        <mxCell id="sI1xtVo6L_vtsN0ePvgo-52" style="edgeStyle=none;rounded=0;orthogonalLoop=1;jettySize=auto;html=1;exitX=0;exitY=0.5;exitDx=0;exitDy=0;entryX=1;entryY=0.5;entryDx=0;entryDy=0;" edge="1" parent="1" source="sI1xtVo6L_vtsN0ePvgo-2" target="sI1xtVo6L_vtsN0ePvgo-11">
          <mxGeometry relative="1" as="geometry" />
        </mxCell>
        <mxCell id="sI1xtVo6L_vtsN0ePvgo-53" style="edgeStyle=none;rounded=0;orthogonalLoop=1;jettySize=auto;html=1;exitX=0;exitY=1;exitDx=0;exitDy=0;entryX=1;entryY=0.5;entryDx=0;entryDy=0;" edge="1" parent="1" source="sI1xtVo6L_vtsN0ePvgo-2" target="sI1xtVo6L_vtsN0ePvgo-10">
          <mxGeometry relative="1" as="geometry" />
        </mxCell>
        <mxCell id="sI1xtVo6L_vtsN0ePvgo-54" style="edgeStyle=none;rounded=0;orthogonalLoop=1;jettySize=auto;html=1;exitX=0.5;exitY=1;exitDx=0;exitDy=0;entryX=0.5;entryY=0;entryDx=0;entryDy=0;" edge="1" parent="1" source="sI1xtVo6L_vtsN0ePvgo-2" target="sI1xtVo6L_vtsN0ePvgo-9">
          <mxGeometry relative="1" as="geometry" />
        </mxCell>
        <mxCell id="sI1xtVo6L_vtsN0ePvgo-2" value="Usuari" style="whiteSpace=wrap;html=1;align=center;" vertex="1" parent="1">
          <mxGeometry x="40" y="240" width="100" height="40" as="geometry" />
        </mxCell>
        <mxCell id="sI1xtVo6L_vtsN0ePvgo-55" style="edgeStyle=none;rounded=0;orthogonalLoop=1;jettySize=auto;html=1;exitX=0;exitY=1;exitDx=0;exitDy=0;entryX=0.5;entryY=0;entryDx=0;entryDy=0;" edge="1" parent="1" source="sI1xtVo6L_vtsN0ePvgo-4" target="sI1xtVo6L_vtsN0ePvgo-21">
          <mxGeometry relative="1" as="geometry" />
        </mxCell>
        <mxCell id="sI1xtVo6L_vtsN0ePvgo-56" style="edgeStyle=none;rounded=0;orthogonalLoop=1;jettySize=auto;html=1;exitX=0;exitY=0.5;exitDx=0;exitDy=0;entryX=1;entryY=0.5;entryDx=0;entryDy=0;" edge="1" parent="1" source="sI1xtVo6L_vtsN0ePvgo-4" target="sI1xtVo6L_vtsN0ePvgo-20">
          <mxGeometry relative="1" as="geometry" />
        </mxCell>
        <mxCell id="sI1xtVo6L_vtsN0ePvgo-57" style="edgeStyle=none;rounded=0;orthogonalLoop=1;jettySize=auto;html=1;exitX=1;exitY=0.5;exitDx=0;exitDy=0;entryX=0;entryY=0.5;entryDx=0;entryDy=0;" edge="1" parent="1" source="sI1xtVo6L_vtsN0ePvgo-4" target="sI1xtVo6L_vtsN0ePvgo-19">
          <mxGeometry relative="1" as="geometry" />
        </mxCell>
        <mxCell id="sI1xtVo6L_vtsN0ePvgo-58" style="edgeStyle=none;rounded=0;orthogonalLoop=1;jettySize=auto;html=1;exitX=1;exitY=1;exitDx=0;exitDy=0;entryX=0.5;entryY=0;entryDx=0;entryDy=0;" edge="1" parent="1" source="sI1xtVo6L_vtsN0ePvgo-4" target="sI1xtVo6L_vtsN0ePvgo-46">
          <mxGeometry relative="1" as="geometry" />
        </mxCell>
        <mxCell id="sI1xtVo6L_vtsN0ePvgo-4" value="Progres" style="whiteSpace=wrap;html=1;align=center;" vertex="1" parent="1">
          <mxGeometry x="240" y="560" width="120" height="40" as="geometry" />
        </mxCell>
        <mxCell id="sI1xtVo6L_vtsN0ePvgo-8" value="Grasa Corporal" style="ellipse;whiteSpace=wrap;html=1;align=center;" vertex="1" parent="1">
          <mxGeometry x="220" y="150" width="100" height="40" as="geometry" />
        </mxCell>
        <mxCell id="sI1xtVo6L_vtsN0ePvgo-9" value="Pes actual" style="ellipse;whiteSpace=wrap;html=1;align=center;" vertex="1" parent="1">
          <mxGeometry y="370" width="100" height="40" as="geometry" />
        </mxCell>
        <mxCell id="sI1xtVo6L_vtsN0ePvgo-10" value="Genere" style="ellipse;whiteSpace=wrap;html=1;align=center;" vertex="1" parent="1">
          <mxGeometry x="-120" y="330" width="100" height="40" as="geometry" />
        </mxCell>
        <mxCell id="sI1xtVo6L_vtsN0ePvgo-11" value="Altura" style="ellipse;whiteSpace=wrap;html=1;align=center;" vertex="1" parent="1">
          <mxGeometry x="-120" y="270" width="100" height="40" as="geometry" />
        </mxCell>
        <mxCell id="sI1xtVo6L_vtsN0ePvgo-12" value="Edat" style="ellipse;whiteSpace=wrap;html=1;align=center;" vertex="1" parent="1">
          <mxGeometry x="-120" y="210" width="100" height="40" as="geometry" />
        </mxCell>
        <mxCell id="sI1xtVo6L_vtsN0ePvgo-13" value="Objectiu" style="ellipse;whiteSpace=wrap;html=1;align=center;" vertex="1" parent="1">
          <mxGeometry x="120" y="110" width="100" height="40" as="geometry" />
        </mxCell>
        <mxCell id="sI1xtVo6L_vtsN0ePvgo-14" value="Nom" style="ellipse;whiteSpace=wrap;html=1;align=center;" vertex="1" parent="1">
          <mxGeometry x="-120" y="150" width="100" height="40" as="geometry" />
        </mxCell>
        <mxCell id="sI1xtVo6L_vtsN0ePvgo-15" value="Duracio&lt;div&gt;Entrenament&lt;/div&gt;" style="ellipse;whiteSpace=wrap;html=1;align=center;" vertex="1" parent="1">
          <mxGeometry x="840" y="280" width="100" height="40" as="geometry" />
        </mxCell>
        <mxCell id="sI1xtVo6L_vtsN0ePvgo-16" value="DNI&lt;div&gt;Usuari&lt;/div&gt;" style="ellipse;whiteSpace=wrap;html=1;align=center;" vertex="1" parent="1">
          <mxGeometry x="690" y="160" width="100" height="40" as="geometry" />
        </mxCell>
        <mxCell id="sI1xtVo6L_vtsN0ePvgo-17" value="Tipus Ejercici" style="ellipse;whiteSpace=wrap;html=1;align=center;" vertex="1" parent="1">
          <mxGeometry x="690" y="320" width="100" height="40" as="geometry" />
        </mxCell>
        <mxCell id="sI1xtVo6L_vtsN0ePvgo-18" value="Data&amp;nbsp;&lt;div&gt;Entrenament&lt;/div&gt;" style="ellipse;whiteSpace=wrap;html=1;align=center;" vertex="1" parent="1">
          <mxGeometry x="840" y="200" width="100" height="40" as="geometry" />
        </mxCell>
        <mxCell id="sI1xtVo6L_vtsN0ePvgo-19" value="Data&lt;div&gt;Actuaal&lt;/div&gt;" style="ellipse;whiteSpace=wrap;html=1;align=center;" vertex="1" parent="1">
          <mxGeometry x="400" y="560" width="100" height="40" as="geometry" />
        </mxCell>
        <mxCell id="sI1xtVo6L_vtsN0ePvgo-20" value="&lt;div&gt;DNI&lt;/div&gt;&lt;div&gt;Usuari&lt;/div&gt;" style="ellipse;whiteSpace=wrap;html=1;align=center;" vertex="1" parent="1">
          <mxGeometry x="100" y="560" width="100" height="40" as="geometry" />
        </mxCell>
        <mxCell id="sI1xtVo6L_vtsN0ePvgo-21" value="Grasa Corporal" style="ellipse;whiteSpace=wrap;html=1;align=center;" vertex="1" parent="1">
          <mxGeometry x="140" y="640" width="100" height="40" as="geometry" />
        </mxCell>
        <mxCell id="sI1xtVo6L_vtsN0ePvgo-25" value="&lt;span style=&quot;border-bottom: 1px dotted&quot;&gt;DNI&lt;/span&gt;" style="ellipse;whiteSpace=wrap;html=1;align=center;" vertex="1" parent="1">
          <mxGeometry y="110" width="100" height="40" as="geometry" />
        </mxCell>
        <mxCell id="sI1xtVo6L_vtsN0ePvgo-28" style="edgeStyle=orthogonalEdgeStyle;rounded=0;orthogonalLoop=1;jettySize=auto;html=1;exitX=0.5;exitY=1;exitDx=0;exitDy=0;" edge="1" parent="1">
          <mxGeometry relative="1" as="geometry">
            <mxPoint x="670" y="397" as="sourcePoint" />
            <mxPoint x="670" y="397" as="targetPoint" />
          </mxGeometry>
        </mxCell>
        <mxCell id="sI1xtVo6L_vtsN0ePvgo-29" style="edgeStyle=orthogonalEdgeStyle;rounded=0;orthogonalLoop=1;jettySize=auto;html=1;exitX=0.5;exitY=1;exitDx=0;exitDy=0;" edge="1" parent="1" source="sI1xtVo6L_vtsN0ePvgo-10" target="sI1xtVo6L_vtsN0ePvgo-10">
          <mxGeometry relative="1" as="geometry" />
        </mxCell>
        <mxCell id="sI1xtVo6L_vtsN0ePvgo-43" style="edgeStyle=none;rounded=0;orthogonalLoop=1;jettySize=auto;html=1;exitX=0;exitY=0;exitDx=30;exitDy=0;exitPerimeter=0;entryX=0.939;entryY=1.003;entryDx=0;entryDy=0;entryPerimeter=0;" edge="1" parent="1" source="sI1xtVo6L_vtsN0ePvgo-31" target="sI1xtVo6L_vtsN0ePvgo-2">
          <mxGeometry relative="1" as="geometry">
            <Array as="points">
              <mxPoint x="134" y="400" />
            </Array>
          </mxGeometry>
        </mxCell>
        <mxCell id="sI1xtVo6L_vtsN0ePvgo-31" value="" style="verticalLabelPosition=bottom;verticalAlign=top;html=1;shape=mxgraph.basic.acute_triangle;dx=0.5;" vertex="1" parent="1">
          <mxGeometry x="270" y="400" width="60" height="50" as="geometry" />
        </mxCell>
        <mxCell id="sI1xtVo6L_vtsN0ePvgo-42" style="edgeStyle=none;rounded=0;orthogonalLoop=1;jettySize=auto;html=1;exitX=0;exitY=0;exitDx=30;exitDy=0;exitPerimeter=0;" edge="1" parent="1" source="sI1xtVo6L_vtsN0ePvgo-33" target="sI1xtVo6L_vtsN0ePvgo-4">
          <mxGeometry relative="1" as="geometry" />
        </mxCell>
        <mxCell id="sI1xtVo6L_vtsN0ePvgo-33" value="" style="verticalLabelPosition=bottom;verticalAlign=top;html=1;shape=mxgraph.basic.acute_triangle;dx=0.5;rotation=-180;fillColor=#000000;" vertex="1" parent="1">
          <mxGeometry x="270" y="450" width="60" height="50" as="geometry" />
        </mxCell>
        <mxCell id="sI1xtVo6L_vtsN0ePvgo-40" style="edgeStyle=none;rounded=0;orthogonalLoop=1;jettySize=auto;html=1;exitX=0;exitY=0;exitDx=30;exitDy=0;exitPerimeter=0;entryX=0;entryY=0.5;entryDx=0;entryDy=0;" edge="1" parent="1" source="sI1xtVo6L_vtsN0ePvgo-36">
          <mxGeometry relative="1" as="geometry">
            <mxPoint x="680" y="260" as="targetPoint" />
          </mxGeometry>
        </mxCell>
        <mxCell id="sI1xtVo6L_vtsN0ePvgo-36" value="" style="verticalLabelPosition=bottom;verticalAlign=top;html=1;shape=mxgraph.basic.acute_triangle;dx=0.5;rotation=90;fillColor=#000000;" vertex="1" parent="1">
          <mxGeometry x="410" y="235" width="60" height="50" as="geometry" />
        </mxCell>
        <mxCell id="sI1xtVo6L_vtsN0ePvgo-39" style="edgeStyle=none;rounded=0;orthogonalLoop=1;jettySize=auto;html=1;exitX=0;exitY=0;exitDx=30;exitDy=0;exitPerimeter=0;entryX=1;entryY=0.5;entryDx=0;entryDy=0;" edge="1" parent="1" source="sI1xtVo6L_vtsN0ePvgo-37" target="sI1xtVo6L_vtsN0ePvgo-2">
          <mxGeometry relative="1" as="geometry" />
        </mxCell>
        <mxCell id="sI1xtVo6L_vtsN0ePvgo-37" value="" style="verticalLabelPosition=bottom;verticalAlign=top;html=1;shape=mxgraph.basic.acute_triangle;dx=0.5;rotation=-90;" vertex="1" parent="1">
          <mxGeometry x="360" y="235" width="60" height="50" as="geometry" />
        </mxCell>
        <mxCell id="sI1xtVo6L_vtsN0ePvgo-41" value="Registra" style="text;html=1;align=center;verticalAlign=middle;resizable=0;points=[];autosize=1;strokeColor=none;fillColor=none;" vertex="1" parent="1">
          <mxGeometry x="380" y="190" width="70" height="30" as="geometry" />
        </mxCell>
        <mxCell id="sI1xtVo6L_vtsN0ePvgo-44" value="Guarda" style="text;html=1;align=center;verticalAlign=middle;resizable=0;points=[];autosize=1;strokeColor=none;fillColor=none;" vertex="1" parent="1">
          <mxGeometry x="330" y="428" width="60" height="30" as="geometry" />
        </mxCell>
        <mxCell id="sI1xtVo6L_vtsN0ePvgo-59" style="edgeStyle=none;rounded=0;orthogonalLoop=1;jettySize=auto;html=1;exitX=0.5;exitY=0;exitDx=0;exitDy=0;entryX=0.5;entryY=1;entryDx=0;entryDy=0;" edge="1" parent="1" source="sI1xtVo6L_vtsN0ePvgo-45" target="sI1xtVo6L_vtsN0ePvgo-16">
          <mxGeometry relative="1" as="geometry" />
        </mxCell>
        <mxCell id="sI1xtVo6L_vtsN0ePvgo-60" style="edgeStyle=none;rounded=0;orthogonalLoop=1;jettySize=auto;html=1;exitX=0.5;exitY=1;exitDx=0;exitDy=0;entryX=0.5;entryY=0;entryDx=0;entryDy=0;" edge="1" parent="1" source="sI1xtVo6L_vtsN0ePvgo-45" target="sI1xtVo6L_vtsN0ePvgo-17">
          <mxGeometry relative="1" as="geometry" />
        </mxCell>
        <mxCell id="sI1xtVo6L_vtsN0ePvgo-61" style="edgeStyle=none;rounded=0;orthogonalLoop=1;jettySize=auto;html=1;exitX=1;exitY=1;exitDx=0;exitDy=0;entryX=0;entryY=0.5;entryDx=0;entryDy=0;" edge="1" parent="1" source="sI1xtVo6L_vtsN0ePvgo-45" target="sI1xtVo6L_vtsN0ePvgo-15">
          <mxGeometry relative="1" as="geometry" />
        </mxCell>
        <mxCell id="sI1xtVo6L_vtsN0ePvgo-62" style="edgeStyle=none;rounded=0;orthogonalLoop=1;jettySize=auto;html=1;exitX=1;exitY=0;exitDx=0;exitDy=0;entryX=0;entryY=0.5;entryDx=0;entryDy=0;" edge="1" parent="1" source="sI1xtVo6L_vtsN0ePvgo-45" target="sI1xtVo6L_vtsN0ePvgo-18">
          <mxGeometry relative="1" as="geometry" />
        </mxCell>
        <mxCell id="sI1xtVo6L_vtsN0ePvgo-45" value="Registre&lt;div&gt;Entrenaments&lt;/div&gt;" style="shape=ext;margin=3;double=1;whiteSpace=wrap;html=1;align=center;" vertex="1" parent="1">
          <mxGeometry x="680" y="240" width="120" height="40" as="geometry" />
        </mxCell>
        <mxCell id="sI1xtVo6L_vtsN0ePvgo-46" value="Pes actual" style="ellipse;whiteSpace=wrap;html=1;align=center;" vertex="1" parent="1">
          <mxGeometry x="360" y="640" width="100" height="40" as="geometry" />
        </mxCell>
      </root>
    </mxGraphModel>
  </diagram>
</mxfile>
